<?xml version="1.0" encoding="UTF-8" standalone="no"?>
<!-- Created with Inkscape (http://www.inkscape.org/) -->
<svg id="svg3400" xmlns:rdf="http://www.w3.org/1999/02/22-rdf-syntax-ns#" xmlns="http://www.w3.org/2000/svg" height="47.781mm" width="209.42mm" version="1.1" xmlns:cc="http://creativecommons.org/ns#" xmlns:dc="http://purl.org/dc/elements/1.1/" viewBox="0 0 742.03471 169.30111">
 <metadata id="metadata3405">
  <rdf:RDF>
   <cc:Work rdf:about="">
    <dc:format>image/svg+xml</dc:format>
    <dc:type rdf:resource="http://purl.org/dc/dcmitype/StillImage"/>
    <dc:title/>
   </cc:Work>
  </rdf:RDF>
 </metadata>
 <g id="layer1" transform="translate(-1.2849 -1.2763)">
  <path id="path3419" d="m4.2171 170.38c0.0024-0.1098 1.1306-2.7152 2.5071-5.7898 2.243-5.0101 2.5059-6.8745 2.534-17.968 0.04285-16.927 1.7036-33.862 4.0227-41.022 1.964-6.0637 5.5179-12.483 6.9106-12.483 0.42196 0 3.6303 2.281 7.1296 5.0689l6.3624 5.0689-2.1865 13.498c-1.4444 8.9172-2.0599 16.344-1.8136 21.884 0.3318 7.46 0.69907 8.8543 3.3286 12.637 3.5291 5.0763 6.6824 7.0029 13.493 8.2442 10.848 1.9772 25.307-2.4496 36.092-11.05l6.5705-5.2394v13.676 13.676h-42.478c-23.363 0-42.476-0.0898-42.473-0.19965zm63.206-68.19c-11.125-5.943-20.91-11.114-21.744-11.494-1.8782-0.85562-0.62265-2.7339 3.4211-5.1178 2.5708-1.5156 2.9475-1.5411 5.5226-0.3741 2.6075 1.1816 2.8574 1.1543 4.4229-0.48452 1.6142-1.6898 1.429-1.9178-6.8262-8.4023-8.0989-6.3618-8.5715-6.6039-10.374-5.316-1.0386 0.74217-2.1378 1.3494-2.4427 1.3494-0.30489 0-1.567-1.8587-2.8047-4.1305l-2.2503-4.1305 4.2371-3.1834 4.2371-3.1834 16.323 12.889 16.323 12.889-4.4388 3.5712-4.4388 3.5713-2.6175-1.4286c-3.7048-2.0219-5.146-2.6404-5.146-2.2083 0 0.49955 17.698 9.3023 18.702 9.3023 0.89462 0 0.14876-24.512-0.76789-25.236-0.32951-0.26018-2.6097 0.61925-5.0672 1.9543l-4.4681 2.4274-4.2329-3.4056-4.2329-3.4056 14.698-7.7323 14.698-7.7323v29.95c0 16.473-0.11378 29.929-0.25284 29.904-0.13906-0.0252-9.3552-4.9058-20.48-10.846zm-40.439-5.8666-16.143-12.765 4.4815-3.6056 4.4815-3.6056 3.8094 2.9372c2.5708 1.9822 3.4999 3.2316 2.8576 3.8427-0.87745 0.83482 5.0361 5.9067 14.347 12.305l2.7242 1.872 2.3326-2.0972 2.3326-2.0973 4.869 2.5276 4.869 2.5276-6.8646 5.4622c-3.7755 3.0042-7.1097 5.4622-7.4093 5.4622-0.29956 0-7.809-5.7444-16.688-12.765zm6.5794-7.582c-2.4452-1.9673-4.2466-3.7216-4.0032-3.8985 0.49114-0.3568 15.984-8.6586 17.724-9.4973 0.60492-0.29158 2.8205 0.86123 4.9235 2.5618l3.8237 3.092-2.9727 1.2138c-1.635 0.66761-5.4435 3.2091-8.4633 5.6478-3.0199 2.4387-5.7372 4.4392-6.0386 4.4456-0.30137 0.006-2.5486-1.598-4.9938-3.5653zm330.4-10.246c3.46-2.9369 9.4808-9.6186 13.42-14.893 9.1224-12.215 9.0296-12.01 5.4444-12.033-2.6888-0.0174-2.5466-0.16986 2.0483-2.1961 4.5765-2.0182 5.7049-3.2182 15.423-16.402 5.7671-7.8236 10.486-14.436 10.486-14.694s-4.1509-0.23644-9.2242 0.0479c-10.384 0.58203-10.724 0.0197-2.3349-3.8624 4.1491-1.92 5.1902-2.0444 15.338-1.833l10.886 0.22678 17.193 26.353 17.193 26.353 6.3187 0.2377c3.4753 0.13074 7.9624-0.12067 9.9715-0.55868 3.5078-0.76479 3.5859-0.73807 1.9687 0.67303-0.92628 0.80818-4.3394 2.5869-7.5846 3.9527-5.2758 2.2204-6.8137 2.4833-14.527 2.4833h-8.6263l-7.2175-10.798-7.2175-10.798-19.347 0.21673-19.347 0.21674-7.09 9.1838c-7.6412 9.8978-17.178 18.105-24.991 21.507l-4.4595 1.942 6.2756-5.3268zm59.221-42.861c-3.7606-5.7002-7.1398-10.372-7.5093-10.382-0.36947-0.01-2.0133 1.7038-3.6529 3.8079s-5.3227 6.7759-8.1846 10.382l-5.2035 6.556h15.694 15.694l-6.8375-10.364zm-397.37 44.102c-5.5391-3.955-8.8468-7.6671-11.4-12.794-2.8625-5.7483-3.96-12.078-5.517-31.818-1.2715-16.12-1.4684-17.096-4.47-22.161l-3.1399-5.2981h41.919 41.919v12.464 12.464l-6.0201-4.4009c-3.311-2.4205-8.6587-5.424-11.884-6.6744-5.2056-2.0184-6.9504-2.2734-15.55-2.2734-9.104 0-9.9153 0.13767-13.487 2.2886-8.3178 5.0095-10.526 11.367-8.928 25.706 1.2061 10.825 4.542 19.961 9.5443 26.14 1.7026 2.103 2.9234 3.9314 2.7128 4.0632-2.4276 1.5184-10.043 5.2894-10.679 5.2877-0.45603-0.0008-2.7152-1.3488-5.0203-2.9947zm133.16 0.002c0.0101-0.32942 3.4406-4.0129 7.6238-8.1855 13.381-13.347 19.095-24.758 16.675-33.297-1.3761-4.8552-7.6494-12.729-12.441-15.614-4.9626-2.9884-13.228-6.2062-17.273-6.7245-4.7021-0.60251-11.702 2.532-14.996 6.7147-2.2857 2.9028-2.3803 3.7088-2.8693 24.445l-0.50569 21.443-5.0568 1.5202c-2.7813 0.8361-5.8533 1.7222-6.8268 1.9691-1.6624 0.42166-1.7699-1.2256-1.7699-27.126v-27.575l-9.3552-0.22962-9.3552-0.22961 6.2922-2.5954c5.9378-2.4492 6.892-2.5954 16.94-2.5954h10.648v3.5936c0 1.9765 0.18383 3.5936 0.40852 3.5936s3.1435-1.2206 6.4862-2.7125c10.366-4.6266 19.099-7.0512 23.353-6.4837 8.96 1.1953 22.919 10.293 28.918 18.846 2.6186 3.7339 3.0332 5.1493 3.0333 10.356 0.00025 9.7174-3.4973 14.322-22.262 29.306-13.578 10.843-17.729 13.563-17.669 11.58zm62.181-7.7106c-6.5212-1.272-13.787-3.8525-15.523-5.5129-1.1924-1.1406-0.63294-1.9095 4.4523-6.1192 3.1988-2.6481 6.1965-4.8146 6.6615-4.8146 0.46503 0 0.73709 0.80857 0.60458 1.7968-0.60721 4.5287 21.454 8.653 32.881 6.1471 3.6149-0.7927 3.7925-0.98896 3.7889-4.1881-0.005-4.3197-2.9147-8.0616-7.7947-10.024-2.1078-0.84749-10.647-3.75-18.977-6.4501-8.3296-2.7-16.18-5.6774-17.446-6.6164-1.9889-1.4754-2.3015-2.5032-2.3015-7.5675v-5.8603l5.3097-1.8869c2.9203-1.0378 7.3098-3.0996 9.7544-4.5818 10.613-6.4352 10.195-6.2886 17.957-6.2886 9.7985 0 22.59 1.4465 25.386 2.8707 1.2516 0.63748 2.2756 1.7919 2.2756 2.5655 0 1.3219-9.8505 9.737-11.398 9.737-0.39314 0-0.60639-0.79645-0.47388-1.7699 0.19309-1.4185-0.56226-1.9841-3.8046-2.849-6.2668-1.6717-19.722-2.8695-25.092-2.2336-5.1268 0.60706-6.7664 2.1758-6.7664 6.4741 0 2.8866 2.8814 4.4683 14.339 7.8712 17.422 5.1743 25.939 9.0025 29.277 13.159 5.0267 6.2587 5.0701 10.736 0.12656 13.044-1.5304 0.71437-6.5112 3.8478-11.069 6.9632-4.5573 3.1154-9.4794 6.0226-10.938 6.4605-3.5574 1.068-14.984 0.89248-21.231-0.32603zm269.27-24.96c-9.0336-14.411-17.152-26.53-18.041-26.932-1.0811-0.48814-2.7261-0.2926-4.9682 0.5906-3.9783 1.5671-5.5113 0.91246-2.2564-0.9636 1.2563-0.72414 5.0412-3.0236 8.4108-5.1099 6.6585-4.1227 8.6918-4.5306 11.941-2.3958 1.1698 0.76864 8.3281 11.639 15.907 24.157 7.5793 12.518 14.141 23.069 14.582 23.447 1.966 1.6852 18.022-20.143 25.158-34.202 2.2221-4.378 3.9028-8.0686 3.7347-8.2013-0.16804-0.13268-5.9476-0.50367-12.843-0.82442l-12.538-0.58317 5.6856-2.5954c5.6264-2.5684 5.8239-2.5954 18.963-2.5954 8.3115 0 13.278 0.30328 13.278 0.81087 0 1.5233-12.321 20.334-20.064 30.634-8.9577 11.914-26.19 30.307-28.762 30.698-1.4029 0.21333-5.1108-5.0739-18.187-25.934zm-175.21 23.846c-15.174-4.1571-30.472-14.104-32.79-21.322-1.9008-5.9172-2.4999-15.498-1.2045-19.262 1.5835-4.6009 4.2964-7.0096 11.51-10.22 4.0191-1.7884 5.712-2.9302 4.7549-3.2068-0.81746-0.23624-6.265-0.52477-12.106-0.64117l-10.619-0.21164 6.5365-2.6928c3.5951-1.481 8.251-3.5474 10.346-4.5919 4.8712-2.4281 6.8686-2.4396 3.9934-0.023l-2.2321 1.8761 8.3769 0.51489c12.098 0.74363 52.078 0.57682 57.428-0.23961 2.5031-0.38198 4.6659-0.60515 4.8061-0.49594 0.71042 0.55328-11.031 4.5398-15.426 5.2374-2.7813 0.44147-13.932 1.0267-24.779 1.3006-13.82 0.34892-20.375 0.81953-21.903 1.5727-5.0938 2.5096-7.7032 18.217-4.482 26.979 1.1618 3.1604 2.4789 4.5413 7.0796 7.4227 7.2245 4.5247 22.244 10.435 29.419 11.576 6.8631 1.0917 11.306 0.25237 19.64-3.7104 3.2705-1.5551 6.179-2.6438 6.4632-2.4194 1.7689 1.3968-14.203 9.8631-23.446 12.428-6.9121 1.9183-14.663 1.9647-21.368 0.12796zm283.15-0.15248c-2.7982-0.87185-9.9925-4.693-15.987-8.4916-12.217-7.7413-16.216-12.134-17.304-19.007-0.80793-5.106 0.86277-13.833 3.6153-18.886 1.9749-3.6249 2.3398-3.8466 9.1989-5.5881 3.9283-0.99737 9.8584-3.2455 13.178-4.9958l6.0356-3.1824 14.301 0.96839c34.623 2.3445 39.731 4.1408 31.745 11.163-1.8086 1.5905-4.2973 3.97-5.5305 5.2876l-2.2421 2.3958-0.0321-2.817c-0.0431-3.7888-2.3646-6.1673-6.8958-7.065-6.3905-1.2661-35.601-3.4743-39.101-2.9559-1.8232 0.27008-4.0481 1.1308-4.9442 1.9126-2.47 2.1551-4.6579 7.751-5.3588 13.706l-0.62925 5.346 16.059 0.52589c22.843 0.74805 40.809 0.65524 44.723-0.23101 2.8902-0.65451 3.1937-0.59843 2.1477 0.39676-0.66999 0.63744-4.2357 1.9271-7.9237 2.8658-5.7368 1.4602-9.8836 1.763-28.703 2.0956-13.801 0.2439-21.997 0.68909-21.997 1.1948 0 1.5896 13.864 11.438 20.268 14.398 12.794 5.913 22.085 6.6674 32.21 2.6158 10.783-4.3146 6.9488-1.0344-5.832 4.9891-9.3843 4.4228-9.8776 4.5544-17.783 4.7462-6.1746 0.14978-9.3549-0.18415-13.218-1.3879zm83.713-1.2014c-12.671-5.0336-19.914-12.118-22.637-22.142-2.2082-8.1302 0.77395-18.811 6.3263-22.657 1.3271-0.9194 5.0911-3.1582 8.3644-4.975 3.6912-2.0488 5.4196-3.4472 4.5512-3.682-0.77015-0.20826-6.8308-1.0409-13.468-1.8503-6.6374-0.80941-12.235-1.8667-12.439-2.3495-0.39926-0.94578 14.022-10.627 15.83-10.627 1.5785 0 1.3387 1.2392-0.46904 2.4239-0.85795 0.56223-1.1993 1.3053-0.75853 1.6513 0.44077 0.34601 12.634 2.1043 27.097 3.9074 30.899 3.8521 30.043 3.7081 35.995 6.0557 10.394 4.0995 13.843 10.623 12.615 23.857-0.86839 9.3564-2.8299 14.727-6.3479 17.381-1.5501 1.1694-9.4175 5.1008-17.483 8.7364-14.284 6.4387-14.862 6.6177-22.25 6.8983-7.0719 0.26854-8.0822 0.0906-14.927-2.6283zm37.424-7.3556c4.5923-2.1127 7.8932-9.4268 8.5753-19.001 0.60867-8.543-0.66566-12.951-4.8257-16.692-4.3095-3.8756-8.3122-5.0971-24.983-7.6239l-14.834-2.2484-2.7518 2.326c-4.3905 3.7112-6.4384 9.5495-6.4011 18.249 0.0479 11.185 3.3483 16.357 13.828 21.667 10.634 5.388 23.862 6.7888 31.393 3.3243z"/>
 </g>
</svg>
